<?xml version="1.0" encoding="UTF-8" standalone="no"?>
<!-- Created with Inkscape (http://www.inkscape.org/) -->

<svg
   width="108mm"
   height="108mm"
   viewBox="0 0 126.71684 126.71684"
   version="1.1"
   id="svg5"
   xml:space="preserve"
   inkscape:version="1.2 (56b05e47e7, 2022-06-09, custom)"
   sodipodi:docname="error.svg"
   xmlns:inkscape="http://www.inkscape.org/namespaces/inkscape"
   xmlns:sodipodi="http://sodipodi.sourceforge.net/DTD/sodipodi-0.dtd"
   xmlns="http://www.w3.org/2000/svg"
   xmlns:svg="http://www.w3.org/2000/svg"><sodipodi:namedview
     id="namedview7"
     pagecolor="#001084"
     bordercolor="#000000"
     borderopacity="0.25"
     inkscape:showpageshadow="2"
     inkscape:pageopacity="0.28235294"
     inkscape:pagecheckerboard="0"
     inkscape:deskcolor="#d1d1d1"
     inkscape:document-units="mm"
     showgrid="false"
     inkscape:zoom="0.3599046"
     inkscape:cx="-38.899197"
     inkscape:cy="218.11335"
     inkscape:window-width="1920"
     inkscape:window-height="1016"
     inkscape:window-x="0"
     inkscape:window-y="0"
     inkscape:window-maximized="1"
     inkscape:current-layer="layer1" /><defs
     id="defs2" /><g
     inkscape:label="Layer 1"
     inkscape:groupmode="layer"
     id="layer1"
     transform="translate(-58.976124,-95.610893)"><path
       style="fill:#ffffff;fill-opacity:1;stroke-width:0.0919439"
       d="m 120.51357,222.2986 c -0.27813,-0.0144 -1.28146,-0.0746 -2.22963,-0.13358 l -1.72396,-0.1074 v -3.11343 -3.11343 h -0.78152 -0.78153 v 3.03524 3.03523 l -0.39076,-0.0554 c -1.88062,-0.26634 -3.99098,-0.65633 -5.58559,-1.03221 l -0.68957,-0.16254 -0.0246,-2.41019 -0.0245,-2.41019 h -0.78001 -0.78 v 2.16799 2.16799 l -0.29881,-0.0654 c -0.2874,-0.0629 -2.55584,-0.82655 -3.17207,-1.06775 l -0.29881,-0.11699 v -0.95643 c 0,-2.48559 -0.62874,-4.52751 -1.87911,-6.10267 -1.195922,-1.50659 -3.499804,-2.64614 -6.120008,-3.0271 -0.932426,-0.13556 -3.81143,-0.13386 -4.781086,0.002 l -0.689581,0.0972 -1.287214,-0.63318 c -2.708784,-1.33248 -5.747039,-3.48467 -8.817694,-6.24615 -2.087286,-1.87711 -3.186468,-3.27325 -4.14059,-5.25916 -0.921328,-1.91767 -1.428439,-3.79733 -1.62896,-6.03798 -0.251584,-2.81131 0.422654,-5.60373 1.800905,-7.45856 l 0.434617,-0.58492 -0.524407,-1.39186 c -2.81653,-7.47563 -6.229974,-18.98666 -7.160758,-24.14802 -0.486303,-2.69658 -0.747332,-6.2835 -0.665764,-9.14841 0.268844,-9.44315 3.284996,-18.66254 8.843417,-27.0315 4.195908,-6.31751 9.745374,-11.8453 16.211229,-16.14789 12.347854,-8.216682 27.015534,-11.135013 40.579634,-8.073888 14.50633,3.273778 27.75646,13.221838 35.9968,27.026068 3.8632,6.47161 6.52663,13.84265 7.55818,20.91723 0.41996,2.88017 0.50409,4.11089 0.50907,7.44745 0.005,3.38751 -0.0608,4.4171 -0.46125,7.2176 -0.56943,3.98172 -2.68156,12.23143 -4.83345,18.87889 l -0.64976,2.00719 0.50887,0.45355 c 1.99939,1.78202 3.05886,5.0694 2.74238,8.50927 -0.20027,2.17684 -0.71261,4.0897 -1.58455,5.91601 -0.92988,1.94764 -1.88995,3.22325 -3.69077,4.90373 -3.02327,2.82124 -6.35292,5.23192 -9.2491,6.69639 -1.89814,0.95982 -1.90684,0.96173 -3.45457,0.76298 -1.64653,-0.21146 -4.15766,-0.21631 -5.38898,-0.0108 -4.40296,0.73619 -6.88877,3.00077 -7.58596,6.91083 -0.11124,0.62412 -0.14051,1.27816 -0.11891,2.66111 l 0.0286,1.83362 -1.19527,0.43858 c -0.65739,0.2412 -1.2263,0.44011 -1.26422,0.44199 -0.0379,0.002 -0.0689,-0.88614 -0.0689,-1.97338 v -1.97679 h -0.8275 -0.8275 v 2.24255 2.24255 l -0.71257,0.19095 c -1.52547,0.40875 -5.0135,1.11641 -5.50278,1.11641 -0.10764,0 -0.12878,-0.47442 -0.12878,-2.89622 v -2.89624 h -0.78152 -0.78153 v 3.02154 3.02155 l -0.94242,0.10152 c -0.96789,0.10429 -3.22763,0.25878 -4.73511,0.32369 l -0.85047,0.0367 v -3.25246 -3.25248 h -0.8275 -0.8275 v 3.26401 3.26401 l -1.08034,-0.017 c -0.59419,-0.01 -1.3079,-0.0288 -1.58603,-0.0433 z m -2.15165,-22.42016 c 1.09228,-0.36666 2.97507,-1.3818 4.2112,-2.27053 0.19723,-0.1418 0.39168,-0.25781 0.43213,-0.25781 0.0404,0 0.55246,0.31226 1.1378,0.69391 3.18493,2.07664 5.3382,2.60969 5.88523,1.45691 0.5583,-1.17652 -0.46801,-6.17037 -2.85124,-13.87367 -0.95535,-3.08793 -2.1869,-6.71706 -2.52732,-7.44745 -0.14258,-0.3059 -0.46978,-0.76671 -0.73445,-1.03437 -0.43903,-0.44397 -0.51146,-0.48271 -0.90269,-0.48271 -0.40018,0 -0.45639,0.0326 -0.94925,0.55055 -0.61152,0.64264 -0.8103,1.10767 -2.01084,4.70417 -2.46903,7.39654 -4.26104,14.46762 -4.22099,16.65562 0.026,1.41946 0.87928,1.85966 2.53042,1.30538 z M 96.236083,187.55343 c 2.786061,-0.52852 5.069537,-1.94792 10.545027,-6.55475 0.80187,-0.67466 1.85101,-1.52131 2.33142,-1.88144 1.67912,-1.25873 2.65874,-2.28387 3.75758,-3.93222 3.50449,-5.25697 4.75591,-13.06763 2.69945,-16.84849 -0.74029,-1.36106 -2.90248,-2.5459 -6.14522,-3.36748 -5.42959,-1.37562 -12.810755,-1.47515 -17.638469,-0.23782 -2.676037,0.68586 -4.378486,1.64602 -5.283811,2.98 -1.438926,2.12019 -2.502773,5.71433 -2.865291,9.68012 -0.165437,1.80972 -0.06736,5.68128 0.187037,7.38652 0.739408,4.95564 2.552504,8.82022 5.090924,10.8512 1.13996,0.91209 2.633617,1.62779 4.015668,1.92415 0.809901,0.17366 2.390735,0.17376 3.305685,0 z m 58.138937,-1.13467 c 2.753,-0.72297 5.1707,-2.86682 6.51858,-5.78024 0.48919,-1.05736 1.01734,-2.66462 1.30645,-3.9758 0.83279,-3.77679 0.79914,-8.44844 -0.0916,-12.70644 -0.79956,-3.82245 -2.40416,-7.31477 -3.92313,-8.53849 -2.94612,-2.37344 -10.56699,-2.98343 -18.30358,-1.46507 -4.90505,0.96266 -8.58555,2.61464 -9.68306,4.34623 -0.31095,0.49061 -0.73635,1.82396 -0.85216,2.671 -0.56752,4.15069 1.25286,10.18045 4.30739,14.26764 1.08565,1.45268 2.23197,2.52105 3.96794,3.69812 0.83066,0.56323 2.08954,1.44864 2.79751,1.96757 5.29514,3.88124 7.57548,5.13775 10.24425,5.64482 0.9585,0.18211 2.76514,0.11914 3.71134,-0.12934 z"
       id="path302" /></g></svg>
