<svg xmlns="http://www.w3.org/2000/svg" viewBox="0 0 181.47 181.42"><defs><style>.cls-1{fill:#009ee2;}.cls-2{fill:#fff;}.cls-3{fill:none;stroke:#fff;stroke-linecap:square;stroke-miterlimit:10;stroke-width:4px;}</style></defs><g id="Слой_2" data-name="Слой 2"><g id="lesson06"><g id="lesson06-2" data-name="lesson06"><path id="Пакман" class="cls-1" d="M90.71,90.71,149,160.19a90.69,90.69,0,0,1-58.3,21.23C41,181.42,0,140.47,0,90.71S41,0,90.71,0A90.76,90.76,0,0,1,160.2,32.4Z"/><circle id="еда" class="cls-1" cx="154.23" cy="90.71" r="27.25"/><circle id="глаз" class="cls-2" cx="115.52" cy="30.43" r="16.51"/><circle id="зрачок" class="cls-1" cx="126.13" cy="40.55" r="6.37"/><polyline id="блютуз_еда" data-name="блютуз еда" class="cls-3" points="145.72 82.2 162.73 99.21 154.23 107.72 154.23 73.7 162.73 82.2 145.72 99.21"/><path class="cls-2" d="M82.45,54.41a52.46,52.46,0,0,0-10.73.81C49.12,58.8,37.41,75.06,35,92.62h.33c5-6.83,14-12.36,25.69-12.36,18.69,0,31.86,13.66,31.86,34.14,0,19.52-13.17,37.4-35.28,37.4-22.44,0-37.23-17.56-37.23-45,0-20.81,7.31-37.23,17.88-47.64C47,50.5,58.71,45.14,72,43.51a68.77,68.77,0,0,1,10.41-.81ZM57.9,140.75c12.19,0,20.48-10.25,20.48-25.37S69.77,91.15,56.6,91.15a23.49,23.49,0,0,0-20.65,13,13.25,13.25,0,0,0-1.47,6.18c.16,17.4,8.29,30.41,23.25,30.41Z"/></g></g></g></svg>