<svg xmlns="http://www.w3.org/2000/svg" viewBox="0 0 181.47 181.42"><defs><style>.cls-1{fill:#009ee2;}.cls-2{fill:#fff;}.cls-3{fill:none;stroke:#fff;stroke-linecap:square;stroke-miterlimit:10;stroke-width:4px;}</style></defs><g id="Слой_2" data-name="Слой 2"><g id="lesson04"><g id="lesson04-2" data-name="lesson04"><path id="Пакман" class="cls-1" d="M90.71,90.71,149,160.19a90.69,90.69,0,0,1-58.3,21.23C41,181.42,0,140.47,0,90.71S41,0,90.71,0A90.76,90.76,0,0,1,160.2,32.4Z"/><circle id="еда" class="cls-1" cx="154.23" cy="90.71" r="27.25"/><circle id="глаз" class="cls-2" cx="115.52" cy="30.43" r="16.51"/><circle id="зрачок" class="cls-1" cx="126.13" cy="40.55" r="6.37"/><polyline id="блютуз_еда" data-name="блютуз еда" class="cls-3" points="145.72 82.2 162.73 99.21 154.23 107.72 154.23 73.7 162.73 82.2 145.72 99.21"/><path class="cls-2" d="M65.05,151.6V118.25H8.46V107.57L62.8,29.81H80.6v75.7H97.65v12.74H80.6V151.6Zm0-46.09V64.85q0-9.55.56-19.11h-.56c-3.75,7.12-6.75,12.36-10.12,18l-29.79,41.4v.38Z"/></g></g></g></svg>