<svg xmlns="http://www.w3.org/2000/svg" viewBox="0 0 181.47 181.42"><defs><style>.cls-1{fill:#009ee2;}.cls-2{fill:#fff;}.cls-3{fill:none;stroke:#fff;stroke-linecap:square;stroke-miterlimit:10;stroke-width:4px;}</style></defs><g id="Слой_2" data-name="Слой 2"><g id="lesson03"><g id="lesson03-2" data-name="lesson03"><path id="Пакман" class="cls-1" d="M90.71,90.71,149,160.19a90.69,90.69,0,0,1-58.3,21.23C41,181.42,0,140.47,0,90.71S41,0,90.71,0A90.76,90.76,0,0,1,160.2,32.4Z"/><circle id="еда" class="cls-1" cx="154.23" cy="90.71" r="27.25"/><circle id="глаз" class="cls-2" cx="115.52" cy="30.43" r="16.51"/><circle id="зрачок" class="cls-1" cx="126.13" cy="40.55" r="6.37"/><polyline id="блютуз_еда" data-name="блютуз еда" class="cls-3" points="145.72 82.2 162.73 99.21 154.23 107.72 154.23 73.7 162.73 82.2 145.72 99.21"/><path class="cls-2" d="M34.16,135.64a52.9,52.9,0,0,0,25.19,7c19.6,0,25.9-12.42,25.72-22-.17-15.92-14.52-22.75-29.39-22.75H47.11V86.31h8.57c11.2,0,25.37-5.78,25.37-19.25,0-9.1-5.78-17.14-19.95-17.14-9.1,0-17.84,4-22.74,7.52l-4.2-11.2c6.12-4.37,17.67-8.75,29.92-8.75,22.39,0,32.54,13.3,32.54,27.12,0,11.9-7.17,21.87-21,26.94v.35C89.62,94.53,101,105,101,121c0,18.19-14.34,34.11-41.46,34.11-12.77,0-24-4-29.57-7.69Z"/></g></g></g></svg>