<svg xmlns="http://www.w3.org/2000/svg" viewBox="0 0 181.47 181.42"><defs><style>.cls-1{fill:#009ee2;}.cls-2{fill:#fcfcfc;}.cls-3{fill:#fff;}.cls-4{fill:none;stroke:#fff;stroke-linecap:square;stroke-miterlimit:10;stroke-width:4px;}</style></defs><g id="Слой_2" data-name="Слой 2"><g id="lesson02"><g id="lesson02-2" data-name="lesson02"><path id="Пакман" class="cls-1" d="M90.71,90.71,149,160.19a90.69,90.69,0,0,1-58.3,21.23C41,181.42,0,140.47,0,90.71S41,0,90.71,0A90.76,90.76,0,0,1,160.2,32.4Z"/><path id="Номер" class="cls-2" d="M29.88,148.58V138.31l11.73-12.73c28.21-30,41.13-46,41.13-64.62,0-12.55-5.27-24.14-21.75-24.14-10,0-18.36,5.7-23.46,10.45L32.77,35.49A46.09,46.09,0,0,1,64.05,23C87.67,23,97.7,41.19,97.7,58.87c0,22.8-14.79,41.24-38.07,66.33L51,134.32v.38h49.46v13.88Z"/><circle id="еда" class="cls-1" cx="154.23" cy="90.71" r="27.25"/><circle id="глаз" class="cls-3" cx="115.52" cy="30.43" r="16.51"/><circle id="зрачок" class="cls-1" cx="126.13" cy="40.55" r="6.37"/><polyline id="блютуз_еда" data-name="блютуз еда" class="cls-4" points="145.72 82.2 162.73 99.21 154.23 107.72 154.23 73.7 162.73 82.2 145.72 99.21"/></g></g></g></svg>