<svg xmlns="http://www.w3.org/2000/svg" viewBox="0 0 181.47 181.42"><defs><style>.cls-1{fill:#009ee2;}.cls-2{fill:#fff;}.cls-3{fill:none;stroke:#fff;stroke-linecap:square;stroke-miterlimit:10;stroke-width:4px;}</style></defs><g id="Слой_2" data-name="Слой 2"><g id="lesson09"><g id="lesson09-2" data-name="lesson09"><path id="Пакман" class="cls-1" d="M90.71,90.71,149,160.19a90.69,90.69,0,0,1-58.3,21.23C41,181.42,0,140.47,0,90.71S41,0,90.71,0A90.76,90.76,0,0,1,160.2,32.4Z"/><circle id="глаз" class="cls-2" cx="115.52" cy="30.43" r="16.51"/><circle id="зрачок" class="cls-1" cx="126.13" cy="40.55" r="6.37"/><circle id="еда" class="cls-1" cx="154.23" cy="90.71" r="27.25"/><polyline id="блютуз_еда" data-name="блютуз еда" class="cls-3" points="145.72 82.2 162.73 99.21 154.23 107.72 154.23 73.7 162.73 82.2 145.72 99.21"/><path class="cls-2" d="M24.21,125.88a62.12,62.12,0,0,0,11.62-.65A38.86,38.86,0,0,0,58.1,115.08c7-6.55,12.11-15.72,14.08-28.33h-.49C65.79,94,57.28,98.21,46.47,98.21,27.32,98.21,15,83.81,15,65.47c0-20,14.73-37.66,36.51-37.66s35.2,17.52,35.2,44.86c0,23.42-7.86,39.79-18.34,49.94a54.19,54.19,0,0,1-30.94,14.24,82.29,82.29,0,0,1-13.26.82Zm26-87.1c-12.12,0-20.79,10.81-20.79,25.87,0,13.26,8,22.59,20.46,22.59,9.66,0,17.19-4.74,21.12-11.13a11.24,11.24,0,0,0,1.15-5.24c.16-18.34-6.71-32.09-21.78-32.09Z"/></g></g></g></svg>