<svg xmlns="http://www.w3.org/2000/svg" viewBox="0 0 181.47 181.42"><defs><style>.cls-1{fill:#009ee2;}.cls-2{fill:#fff;}.cls-3{fill:none;stroke:#fff;stroke-linecap:square;stroke-miterlimit:10;stroke-width:4px;}</style></defs><g id="Слой_2" data-name="Слой 2"><g id="lesson08"><g id="lesson08-2" data-name="lesson08"><path id="Пакман" class="cls-1" d="M90.71,90.71,149,160.19a90.69,90.69,0,0,1-58.3,21.23C41,181.42,0,140.47,0,90.71S41,0,90.71,0A90.76,90.76,0,0,1,160.2,32.4Z"/><circle id="еда" class="cls-1" cx="154.23" cy="90.71" r="27.25"/><circle id="глаз" class="cls-2" cx="115.52" cy="30.43" r="16.51"/><circle id="зрачок" class="cls-1" cx="126.13" cy="40.55" r="6.37"/><polyline id="блютуз_еда" data-name="блютуз еда" class="cls-3" points="145.72 82.2 162.73 99.21 154.23 107.72 154.23 73.7 162.73 82.2 145.72 99.21"/><path class="cls-2" d="M60.83,31.59C84.09,31.59,95.9,46,95.9,61.12c0,10.16-5.17,21.23-19.94,28.06v.56c15,5.9,24.19,16.61,24.19,31,0,21-17.91,34.88-40.8,34.88-25.1,0-40.24-14.76-40.24-32.3,0-15.14,9.05-26,23.63-32.3v-.56c-13.48-6.27-19.2-16.61-19.2-26.95,0-19,16.06-31.93,37.1-31.93ZM59.72,143.82c14.58,0,24-9,24-21.41,0-14.4-10.15-21.6-26.4-26.21-14,4.06-21.59,13.47-21.59,24.91-.56,12,8.67,22.71,23.81,22.71Zm.19-100.6c-13.48,0-20.86,8.86-20.86,19.2-.19,12,9,18.46,22.89,22.15,10.33-3.51,18.27-10.89,18.27-21.78,0-9.6-5.72-19.57-20.12-19.57Z"/></g></g></g></svg>