<svg xmlns="http://www.w3.org/2000/svg" viewBox="0 0 181.47 181.42"><defs><style>.cls-1{fill:#009ee2;}.cls-2{fill:#fff;}.cls-3,.cls-4{fill:none;}.cls-3{stroke:#fff;stroke-linecap:square;stroke-miterlimit:10;stroke-width:4px;}</style></defs><g id="Слой_2" data-name="Слой 2"><g id="lesson10"><g id="lesson10-2" data-name="lesson10"><path id="Пакман" class="cls-1" d="M90.71,90.71,149,160.19a90.69,90.69,0,0,1-58.3,21.23C41,181.42,0,140.47,0,90.71S41,0,90.71,0A90.76,90.76,0,0,1,160.2,32.4Z"/><circle id="глаз" class="cls-2" cx="115.52" cy="30.43" r="16.51"/><circle id="зрачок" class="cls-1" cx="126.13" cy="40.55" r="6.37"/><circle id="еда" class="cls-1" cx="154.23" cy="90.71" r="27.25"/><polyline id="блютуз_еда" data-name="блютуз еда" class="cls-3" points="145.72 82.2 162.73 99.21 154.23 107.72 154.23 73.7 162.73 82.2 145.72 99.21"/><path class="cls-2" d="M28.5,60h-.31l-17,9.18L8.62,59,30,47.6H41.3v97.88H28.5Z"/><path class="cls-4" d="M110.45,74.14C107.61,61.53,101.63,54,91.91,54,79.47,54,71.38,69.87,71.38,95.22c-.31,26.29,7.78,42.16,20.38,42.16h.15c9.94,0,16.18-8.41,18.92-22.69a104.59,104.59,0,0,0,1.62-19.47A97.17,97.17,0,0,0,110.45,74.14Z"/><path class="cls-2" d="M92.85,43.43C72.32,43.43,57.54,61.94,57.54,96,57.85,129.44,71.38,148,91.14,148h.15c13.75,0,23.94-7.35,29.67-21.19l-10.13-12.07c-2.74,14.28-9,22.69-18.92,22.69h-.15c-12.6,0-20.69-15.87-20.38-42.16C71.38,69.87,79.47,54,91.91,54c9.72,0,15.7,7.53,18.54,20.14l11.07-9.28C116.1,51.06,106.26,43.43,92.85,43.43Z"/></g></g></g></svg>