<?xml version="1.0" encoding="UTF-8" standalone="no"?>
<svg
   viewBox="0 0 181.47 181.42"
   version="1.1"
   id="svg209"
   sodipodi:docname="puckman.svg"
   inkscape:version="1.2 (56b05e47e7, 2022-06-09, custom)"
   xmlns:inkscape="http://www.inkscape.org/namespaces/inkscape"
   xmlns:sodipodi="http://sodipodi.sourceforge.net/DTD/sodipodi-0.dtd"
   xmlns="http://www.w3.org/2000/svg"
   xmlns:svg="http://www.w3.org/2000/svg">
  <sodipodi:namedview
     id="namedview211"
     pagecolor="#ffffff"
     bordercolor="#000000"
     borderopacity="0.25"
     inkscape:showpageshadow="2"
     inkscape:pageopacity="0.0"
     inkscape:pagecheckerboard="0"
     inkscape:deskcolor="#d1d1d1"
     showgrid="false"
     inkscape:zoom="4.5915555"
     inkscape:cx="90.818896"
     inkscape:cy="73.286711"
     inkscape:window-width="1920"
     inkscape:window-height="1016"
     inkscape:window-x="0"
     inkscape:window-y="0"
     inkscape:window-maximized="1"
     inkscape:current-layer="svg209" />
  <defs
     id="defs200">
    <style
       id="style198">.cls-1{fill:#009ee2;}.cls-2{fill:#fff;}</style>
  </defs>
  <g
     id="Слой_2"
     data-name="Слой 2">
    <g
       id="lesson01">
      <g
         id="lesson01-2"
         data-name="lesson01">
        <path
           id="Пакман-2"
           data-name="Пакман"
           class="cls-1"
           d="M90.71,90.71,149,160.19a90.69,90.69,0,0,1-58.3,21.23C41,181.42,0,140.47,0,90.71S41,0,90.71,0A90.76,90.76,0,0,1,160.2,32.4Z" />
        <circle
           id="еда"
           class="cls-1"
           cx="154.23"
           cy="90.71"
           r="27.25" />
        <circle
           id="глаз"
           class="cls-2"
           cx="115.52"
           cy="30.43"
           r="16.51" />
        <circle
           id="зрачок"
           class="cls-1"
           cx="126.13"
           cy="40.55"
           r="6.37" />
      </g>
    </g>
  </g>
  <path
     style="color:#000000;fill:#ffffff;stroke-linecap:square;-inkscape-stroke:none"
     d="m 53.658203,13.919922 v 64.644531 l -26.177734,-23.730469 -4.201172,-3.80664 -7.615234,8.40039 4.199218,3.806641 31.023438,28.123047 -31.023438,28.123048 -4.199218,3.80664 7.615234,8.40039 4.201172,-3.80664 26.177734,-23.73047 v 64.64453 L 103.42383,123.67969 67.769531,91.357422 103.42383,59.035156 Z m 11.337891,25.582031 21.546875,19.533203 -21.546875,19.53125 z m 0,64.646487 21.546875,19.53125 -21.546875,19.5332 z"
     id="path435" />
  <path
     style="color:#000000;fill:#ffffff;stroke-linecap:square;-inkscape-stroke:none"
     d="m 152.26758,64.898437 v 21.546875 l -8.72656,-7.910156 -1.39844,-1.269531 -2.53906,2.800781 1.40039,1.269531 10.33984,9.375 -10.33984,9.373043 -1.40039,1.26954 2.53906,2.80078 1.39844,-1.26953 8.72656,-7.910161 v 21.548831 l 16.58984,-15.03906 -11.88672,-10.773443 11.88672,-10.77539 z m 3.77929,8.525391 7.18165,6.511719 -7.18165,6.511719 z m 0,21.548828 7.18165,6.511724 -7.18165,6.51171 z"
     id="path992" />
</svg>
